<svg xmlns="http://www.w3.org/2000/svg"  viewBox="0 0 64 64" width="64px" height="64px"><path d="M 19.402344 6 C 12.01804 6 6 12.055119 6 19.466797 L 6 44.53125 C 6 51.945692 12.01804 58 19.402344 58 L 44.597656 58 C 51.98196 58 58 51.944661 58 44.529297 L 58 19.466797 C 58 12.055119 51.98288 6 44.597656 6 L 19.402344 6 z M 19.402344 8 L 44.597656 8 C 50.892432 8 56 13.134475 56 19.466797 L 56 44.529297 C 56 50.865933 50.891352 56 44.597656 56 L 19.402344 56 C 13.108648 56 8 50.866808 8 44.53125 L 8 19.466797 C 8 13.134475 13.108648 8 19.402344 8 z M 44 15 A 2 2 0 0 0 44 19 A 2 2 0 0 0 44 15 z M 28.419922 16 C 22.674922 16 18 20.740406 18 26.566406 L 18 47 C 18 48.105 18.895 49 20 49 L 24.050781 49 C 25.155781 49 26.050781 48.105 26.050781 47 L 26.050781 39.234375 C 26.123781 39.214375 26.194625 39.191109 26.265625 39.162109 L 32.261719 36.751953 C 36.257719 35.144953 38.839844 31.288687 38.839844 26.929688 L 38.839844 26.566406 C 38.839844 20.740406 34.165922 16 28.419922 16 z M 28.419922 18 C 33.069922 18 36.837891 21.835406 36.837891 26.566406 L 36.837891 26.929688 C 36.837891 30.444688 34.726672 33.603484 31.513672 34.896484 L 25.519531 37.306641 L 24.082031 35.777344 L 24.048828 35.707031 L 24.048828 47 L 20 47 L 20 26.566406 C 20 21.835406 23.769922 18 28.419922 18 z M 11 21 C 10.448 21 10 21.448 10 22 C 10 22.552 10.448 23 11 23 L 13 23 C 13.552 23 14 22.552 14 22 C 14 21.448 13.552 21 13 21 L 11 21 z M 44 21 A 2 2 0 0 0 44 25 A 2 2 0 0 0 44 21 z M 51 21 C 50.448 21 50 21.448 50 22 C 50 22.552 50.448 23 51 23 L 53 23 C 53.552 23 54 22.552 54 22 C 54 21.448 53.552 21 53 21 L 51 21 z M 28.408203 21.955078 C 26.001203 21.955078 24.050781 23.939672 24.050781 26.388672 L 24.050781 33.691406 L 24.082031 33.685547 L 30.0625 31.189453 C 31.6975 30.506453 32.765625 28.886891 32.765625 27.087891 L 32.765625 26.388672 C 32.765625 23.939672 30.815203 21.955078 28.408203 21.955078 z M 28.408203 23.953125 C 29.708203 23.953125 30.765625 25.046672 30.765625 26.388672 L 30.765625 27.085938 C 30.765625 28.082937 30.187969 28.967797 29.292969 29.341797 L 26.050781 30.695312 L 26.050781 26.388672 C 26.050781 25.046672 27.108203 23.953125 28.408203 23.953125 z M 11 26 C 10.448 26 10 26.448 10 27 C 10 27.552 10.448 28 11 28 L 13 28 C 13.552 28 14 27.552 14 27 C 14 26.448 13.552 26 13 26 L 11 26 z M 51 26 C 50.448 26 50 26.448 50 27 C 50 27.552 50.448 28 51 28 L 53 28 C 53.552 28 54 27.552 54 27 C 54 26.448 53.552 26 53 26 L 51 26 z M 44 27 A 2 2 0 0 0 44 31 A 2 2 0 0 0 44 27 z M 11 31 C 10.448 31 10 31.448 10 32 C 10 32.552 10.448 33 11 33 L 13 33 C 13.552 33 14 32.552 14 32 C 14 31.448 13.552 31 13 31 L 11 31 z M 51 31 C 50.448 31 50 31.448 50 32 C 50 32.552 50.448 33 51 33 L 53 33 C 53.552 33 54 32.552 54 32 C 54 31.448 53.552 31 53 31 L 51 31 z M 44 33 A 2 2 0 0 0 44 37 A 2 2 0 0 0 44 33 z M 11 36 C 10.448 36 10 36.448 10 37 C 10 37.552 10.448 38 11 38 L 13 38 C 13.552 38 14 37.552 14 37 C 14 36.448 13.552 36 13 36 L 11 36 z M 51 36 C 50.448 36 50 36.448 50 37 C 50 37.552 50.448 38 51 38 L 53 38 C 53.552 38 54 37.552 54 37 C 54 36.448 53.552 36 53 36 L 51 36 z M 44 39 A 2 2 0 0 0 44 43 A 2 2 0 0 0 44 39 z M 11 41 C 10.448 41 10 41.448 10 42 C 10 42.552 10.448 43 11 43 L 13 43 C 13.552 43 14 42.552 14 42 C 14 41.448 13.552 41 13 41 L 11 41 z M 51 41 C 50.448 41 50 41.448 50 42 C 50 42.552 50.448 43 51 43 L 53 43 C 53.552 43 54 42.552 54 42 C 54 41.448 53.552 41 53 41 L 51 41 z M 44 45 A 2 2 0 0 0 44 49 A 2 2 0 0 0 44 45 z"/></svg>