<svg width="192" height="192" viewBox="0 0 192 192" fill="none" xmlns="http://www.w3.org/2000/svg">
  <!-- Background Circle -->
  <circle cx="96" cy="96" r="88" fill="url(#bgGradient)"/>
  
  <!-- TV Screen Frame -->
  <rect x="48" y="64" width="96" height="72" rx="8" fill="#1a1b23" stroke="url(#frameGradient)" stroke-width="3"/>
  
  <!-- Screen Content -->
  <rect x="56" y="72" width="80" height="56" rx="4" fill="#000"/>
  
  <!-- Play Button -->
  <circle cx="96" cy="100" r="16" fill="url(#playGradient)" opacity="0.9"/>
  <path d="M90 92L106 100L90 108V92Z" fill="white"/>
  
  <!-- Signal/Wave Lines (representing streaming) -->
  <path d="M144 84C144 84 150 78 156 84" stroke="url(#signalGradient)" stroke-width="2" stroke-linecap="round" fill="none"/>
  <path d="M144 100C144 100 152 94 160 100" stroke="url(#signalGradient)" stroke-width="2" stroke-linecap="round" fill="none"/>
  <path d="M144 116C144 116 150 110 156 116" stroke="url(#signalGradient)" stroke-width="2" stroke-linecap="round" fill="none"/>
  
  <!-- Small dots representing shows/content -->
  <circle cx="64" cy="80" r="2" fill="#8b5cf6" opacity="0.8"/>
  <circle cx="72" cy="80" r="2" fill="#ec4899" opacity="0.8"/>
  <circle cx="80" cy="80" r="2" fill="#8b5cf6" opacity="0.8"/>
  <circle cx="88" cy="80" r="2" fill="#ec4899" opacity="0.8"/>
  
  <circle cx="64" cy="120" r="2" fill="#ec4899" opacity="0.8"/>
  <circle cx="72" cy="120" r="2" fill="#8b5cf6" opacity="0.8"/>
  <circle cx="80" cy="120" r="2" fill="#ec4899" opacity="0.8"/>
  <circle cx="88" cy="120" r="2" fill="#8b5cf6" opacity="0.8"/>
  
  <!-- Letter "B" overlay (subtle) -->
  <path d="M32 60V140H52C58 140 62 136 62 130V110C62 104 58 100 52 100H48V80H52C58 80 62 76 62 70V70C62 64 58 60 52 60H32Z" fill="url(#letterGradient)" opacity="0.3"/>
  
  <defs>
    <!-- Background Gradient -->
    <linearGradient id="bgGradient" x1="0%" y1="0%" x2="100%" y2="100%">
      <stop offset="0%" style="stop-color:#1a1b23"/>
      <stop offset="50%" style="stop-color:#2a2b33"/>
      <stop offset="100%" style="stop-color:#1a1b23"/>
    </linearGradient>
    
    <!-- Frame Gradient -->
    <linearGradient id="frameGradient" x1="0%" y1="0%" x2="100%" y2="100%">
      <stop offset="0%" style="stop-color:#8b5cf6"/>
      <stop offset="100%" style="stop-color:#ec4899"/>
    </linearGradient>
    
    <!-- Play Button Gradient -->
    <radialGradient id="playGradient" cx="50%" cy="50%" r="50%">
      <stop offset="0%" style="stop-color:#8b5cf6"/>
      <stop offset="100%" style="stop-color:#ec4899"/>
    </radialGradient>
    
    <!-- Signal Gradient -->
    <linearGradient id="signalGradient" x1="0%" y1="0%" x2="100%" y2="0%">
      <stop offset="0%" style="stop-color:#8b5cf6" stop-opacity="0.8"/>
      <stop offset="100%" style="stop-color:#ec4899" stop-opacity="0.4"/>
    </linearGradient>
    
    <!-- Letter Gradient -->
    <linearGradient id="letterGradient" x1="0%" y1="0%" x2="100%" y2="100%">
      <stop offset="0%" style="stop-color:#8b5cf6"/>
      <stop offset="100%" style="stop-color:#ec4899"/>
    </linearGradient>
  </defs>
</svg>